<svg version="1.1" id="Layer_1" xmlns="http://www.w3.org/2000/svg" x="0" y="0" viewBox="0 0 512 341" xml:space="preserve"><style>.st1{fill:#c00}</style><path d="M0 0h512v341H0V0z" fill="#f0f0f0"/><path class="st1" d="M0 0h512v24.4H0zm0 48.7h512v24.4H0zm0 48.7h512v24.4H0zm0 48.7h512v24.4H0z"/><path d="M0 0h256v170.5H0V0z" fill="#006"/><path class="st1" d="M512 316.6H0v-24.4h512v24.4zm0-48.7H0v-24.4h512v24.4zm0-48.7H0v-24.4h512v24.4z"/><path d="M164.5 34l4.6 31.3 17.7-26.2-9.5 30.2 27.3-15.9-21.6 23 31.5-2.5L185 85.2l29.5 11.4-31.5-2.5 21.6 23.1-27.3-15.9 9.5 30.2-17.7-26.2-4.6 31.3-4.6-31.3-17.7 26.2 9.5-30.2-27.3 15.9L146 94.1l-31.5 2.5L144 85.2l-29.5-11.4 31.5 2.5-21.6-23.1 27.3 15.9-9.5-30.2 17.7 26.2 4.6-31.1zm-25.6 1.3C111.3 23 79 35.5 66.7 63.1s.2 59.9 27.8 72.2c14.1 6.3 30.2 6.3 44.4 0-27.6 19.8-66 13.5-85.8-14.1s-13.5-66 14.1-85.8c21.4-15.5 50.3-15.5 71.7-.1z" fill="#fc0"/></svg>